<svg width="1513" height="288" viewBox="0 0 1513 288" fill="none" xmlns="http://www.w3.org/2000/svg">
<g clip-path="url(#clip0_2029_1124)">
<path d="M-7.41049 75.7491C-26.6127 80.8164 -31.6135 232.439 -132.322 241.405L-72.1575 298.26L116.565 258.884C137.892 259.714 182.415 261.905 189.884 264.033C197.353 266.162 236.946 267.171 250.604 248.749L292.002 251.657C337.638 253.692 434.166 255.726 455.189 247.579C476.211 239.431 532.581 223.274 558.139 216.214L679.839 224.76C709.935 219.69 771.84 206.561 778.694 194.612C785.548 182.662 848.445 214.881 872.375 216.729L918.76 219.986L1027.62 183.021L1196.13 160.27L1248.74 189.027L1397.13 174.386L1443.17 154.062L1522.32 183.178L1527.09 115.345L1446.28 109.671L1344.39 126.073L1267.6 141.732L1095.87 153.23L962.7 143.877L862.447 136.837C778.13 150.297 607.026 178.145 597.141 181.862C584.785 186.507 342.307 106.324 277.388 95.7498C212.469 85.1759 16.5922 69.4151 -7.41049 75.7491Z" fill="#E2554F"/>
<path d="M-17.5 141L-118 228.5L-134 545L1505.5 654.5L1607.5 186.5L1436.5 141H1097.5L949 186.5C819 177.667 552.2 160 525 160C491 160 207 99 190 99C176.4 99 46 127 -17.5 141Z" fill="#F2F1EA"/>
</g>
<defs>
<clipPath id="clip0_2029_1124">
<rect width="1513" height="288" fill="white"/>
</clipPath>
</defs>
</svg>
