<svg width="145" height="145" viewBox="0 0 145 145" fill="none" xmlns="http://www.w3.org/2000/svg">
<path d="M72.36 145.01C32.4 145.01 0 112.62 0 72.65V72.36C0 32.4 32.39 0 72.36 0C112.32 0 144.72 32.39 144.72 72.36V72.65C144.71 112.62 112.32 145.01 72.36 145.01Z" fill="black"/>
<path d="M73 19.8801C72.82 19.4101 72.15 19.4101 71.98 19.8901C65.74 36.8301 45.46 55.59 45.75 70.36C45.75 85.49 57.12 97.67 72.48 97.67C88.91 97.67 101.45 81.8601 98.38 65.8901C98.03 64.0601 97.51 62.2601 96.85 60.5201C94.23 53.5501 89.68 47.4401 85.51 41.3401C81.29 35.1801 77 28.9901 73.95 22.1501C73.61 21.4001 73.3 20.6501 73 19.8801ZM80.23 82.49L76.12 80.7901C75.84 80.6801 75.54 80.66 75.25 80.74C74.3 81.01 73.29 81.1501 72.24 81.1201C66.86 81.0001 62.48 76.5801 62.41 71.2001C62.33 65.5701 66.87 60.99 72.48 60.99C78.04 60.99 82.55 65.5001 82.55 71.0601C82.55 73.4801 81.7 75.7001 80.27 77.4401C80.11 77.6401 80.03 77.9001 80.07 78.1501L80.61 82.2001C80.64 82.4101 80.43 82.57 80.23 82.49Z" fill="white"/>
<path d="M94.4701 111.24H50.2101C47.7801 111.24 45.8201 109.27 45.8201 106.85C45.8201 104.43 47.7901 102.46 50.2101 102.46H94.4701C96.9001 102.46 98.86 104.43 98.86 106.85C98.86 109.27 96.9001 111.24 94.4701 111.24Z" fill="white"/>
<path d="M79.49 125.1C78.4 125.1 77.31 124.7 76.46 123.89L61.88 110.03C60.12 108.36 60.05 105.58 61.72 103.82C63.39 102.06 66.17 101.99 67.93 103.66L82.51 117.52C84.27 119.19 84.34 121.97 82.67 123.73C81.81 124.65 80.65 125.1 79.49 125.1Z" fill="white"/>
</svg>
