<svg width="115" height="115" viewBox="0 0 115 115" fill="none" xmlns="http://www.w3.org/2000/svg">
<rect width="115" height="115" rx="57.5" fill="black"/>
<path d="M57.9805 14.2961C57.8246 13.9003 57.2669 13.9003 57.117 14.3021C51.8582 28.5794 34.7626 44.3978 35.0025 56.8462C35.0025 69.6004 44.5907 79.8721 57.5368 79.8721C71.3824 79.8721 81.9599 66.5423 79.3695 53.0805C79.0697 51.5394 78.6319 50.0223 78.0803 48.5472C75.8676 42.6708 72.03 37.52 68.5161 32.3811C64.9603 27.1882 61.3445 21.9714 58.772 16.2029C58.4962 15.5793 58.2324 14.9437 57.9805 14.2961ZM64.0788 67.082L60.6129 65.6548C60.3791 65.5589 60.1212 65.5469 59.8814 65.6128C59.0778 65.8407 58.2264 65.9546 57.3449 65.9366C52.8117 65.8347 49.1179 62.105 49.0579 57.5717C48.992 52.8286 52.8177 48.961 57.5488 48.961C62.2379 48.961 66.0396 52.7627 66.0396 57.4518C66.0396 59.4906 65.32 61.3674 64.1208 62.8305C63.9829 62.9984 63.9229 63.2143 63.9529 63.4302L64.4086 66.8421C64.4146 67.01 64.2407 67.1479 64.0788 67.082Z" fill="url(#paint0_linear_2025_1085)"/>
<mask id="mask0_2025_1085" style="mask-type:luminance" maskUnits="userSpaceOnUse" x="35" y="14" width="45" height="66">
<path d="M57.9805 14.2961C57.8246 13.9003 57.2669 13.9003 57.117 14.3021C51.8582 28.5794 34.7626 44.3978 35.0025 56.8462C35.0025 69.6004 44.5907 79.8721 57.5368 79.8721C71.3824 79.8721 81.9599 66.5423 79.3695 53.0805C79.0697 51.5394 78.6319 50.0223 78.0803 48.5472C75.8676 42.6708 72.03 37.52 68.5161 32.3811C64.9603 27.1882 61.3445 21.9714 58.772 16.2029C58.4962 15.5793 58.2324 14.9437 57.9805 14.2961ZM64.0788 67.082L60.6129 65.6548C60.3791 65.5589 60.1212 65.5469 59.8814 65.6128C59.0778 65.8407 58.2264 65.9546 57.3449 65.9366C52.8117 65.8347 49.1179 62.105 49.0579 57.5717C48.992 52.8286 52.8177 48.961 57.5488 48.961C62.2379 48.961 66.0396 52.7627 66.0396 57.4518C66.0396 59.4906 65.32 61.3674 64.1208 62.8305C63.9829 62.9984 63.9229 63.2143 63.9529 63.4302L64.4086 66.8421C64.4146 67.01 64.2407 67.1479 64.0788 67.082Z" fill="white"/>
</mask>
<g mask="url(#mask0_2025_1085)">
<path d="M63.9109 18.5413C63.9409 21.8213 64.0369 32.6267 55.7379 40.5179C49.1419 46.7901 43.4934 45.285 40.2973 51.7791C38.2825 55.8746 38.8462 59.8922 39.0261 61.0435C40.1594 68.377 46.0358 72.3106 47.379 73.21C54.4067 77.9172 62.166 76.568 64.8164 75.9324C72.3178 74.1335 76.6232 68.9766 76.983 69.3964C77.4027 69.8761 72.3358 77.4555 64.4506 81.563C50.713 88.7226 26.9494 86.0902 19.0462 71.3932C12.1684 58.609 21.019 43.6301 27.585 32.5248C28.8922 30.3122 37.9707 15.3453 51.7443 11.4536C53.927 10.836 59.0479 9.39088 61.9141 11.9993C63.1614 13.1386 63.8809 14.9495 63.9109 18.5413Z" fill="url(#paint1_linear_2025_1085)"/>
</g>
<path d="M76.0115 91.373H38.7322C36.6874 91.373 35.0324 89.706 35.0324 87.6493C35.0324 85.5925 36.6874 83.9255 38.7322 83.9255H76.0115C78.0562 83.9255 79.7112 85.5925 79.7112 87.6493C79.7112 89.706 78.0562 91.373 76.0115 91.373Z" fill="url(#paint2_linear_2025_1085)"/>
<path d="M63.4732 103C62.5557 103 61.6383 102.664 60.9187 101.98L48.6262 90.3056C47.1451 88.8964 47.0852 86.5579 48.4943 85.0768C49.9034 83.5957 52.248 83.5357 53.7291 84.9448L66.0216 96.6198C67.5027 98.0289 67.5627 100.367 66.1535 101.849C65.434 102.616 64.4566 103 63.4732 103Z" fill="url(#paint3_linear_2025_1085)"/>
<defs>
<linearGradient id="paint0_linear_2025_1085" x1="55.5317" y1="44.0338" x2="61.8047" y2="88.3541" gradientUnits="userSpaceOnUse">
<stop stop-color="#343F56"/>
<stop offset="0.0568" stop-color="#424055"/>
<stop offset="0.1633" stop-color="#654152"/>
<stop offset="0.3079" stop-color="#9F444E"/>
<stop offset="0.4836" stop-color="#EE4847"/>
<stop offset="0.496" stop-color="#F44847"/>
<stop offset="0.6596" stop-color="#F0733E"/>
<stop offset="0.7918" stop-color="#ED9837"/>
<stop offset="1" stop-color="#EFBE43"/>
</linearGradient>
<linearGradient id="paint1_linear_2025_1085" x1="16.5568" y1="47.9444" x2="77.0125" y2="47.9444" gradientUnits="userSpaceOnUse">
<stop stop-color="#343F56"/>
<stop offset="0.0568" stop-color="#424055"/>
<stop offset="0.1633" stop-color="#654152"/>
<stop offset="0.3079" stop-color="#9F444E"/>
<stop offset="0.4836" stop-color="#EE4847"/>
<stop offset="0.496" stop-color="#F44847"/>
<stop offset="0.6596" stop-color="#F0733E"/>
<stop offset="0.7918" stop-color="#ED9837"/>
<stop offset="1" stop-color="#EFBE43"/>
</linearGradient>
<linearGradient id="paint2_linear_2025_1085" x1="35.032" y1="87.6523" x2="79.7126" y2="87.6523" gradientUnits="userSpaceOnUse">
<stop stop-color="#F44847"/>
<stop offset="0.0177" stop-color="#EF4847"/>
<stop offset="0.2824" stop-color="#AD454D"/>
<stop offset="0.5222" stop-color="#794251"/>
<stop offset="0.7294" stop-color="#534054"/>
<stop offset="0.8956" stop-color="#3C3F55"/>
<stop offset="1" stop-color="#343F56"/>
</linearGradient>
<linearGradient id="paint3_linear_2025_1085" x1="68.9503" y1="105.823" x2="46.5834" y2="82.0335" gradientUnits="userSpaceOnUse">
<stop offset="0.0496" stop-color="#343F56"/>
<stop offset="0.1007" stop-color="#424055"/>
<stop offset="0.1965" stop-color="#654152"/>
<stop offset="0.3267" stop-color="#9F444E"/>
<stop offset="0.4848" stop-color="#EE4847"/>
<stop offset="0.496" stop-color="#F44847"/>
<stop offset="0.6596" stop-color="#F0733E"/>
<stop offset="0.7918" stop-color="#ED9837"/>
</linearGradient>
</defs>
</svg>
