<svg width="1529" height="191" viewBox="0 0 1529 191" fill="none" xmlns="http://www.w3.org/2000/svg">
<g clip-path="url(#clip0_2029_1101)">
<path d="M1172 73L1519.5 31.5L1605 392L-7 427.5L169 207C234.833 210.333 348.8 293.5 382 293.5H658L796 114.5L1172 73Z" fill="#272F3F"/>
<path d="M-4 74C-22.8 80.4 -17.1667 232 -117 248L-53 300.5L132.5 248C153.833 247.333 198.4 246.4 206 248C213.6 249.6 253.167 247.833 265.5 228.5H307C352.667 227.333 449.1 222.6 469.5 213C489.9 203.4 545 183.333 570 174.5H692C721.667 167.333 782.5 149.9 788.5 137.5C794.5 125.1 859.5 152.833 883.5 153H930L1036 108.5L1202.5 74L1257 99L1404 74L1448.5 50.5L1529.5 74V6H1448.5L1348 29.5L1272.5 50.5L1102 74H968.5H868C784.833 93.3333 616.1 133.1 606.5 137.5C594.5 143 347 80 281.5 74C216 68 19.5 66 -4 74Z" fill="#E2554F"/>
<path d="M1067.5 124L1494.5 106.5L1557.5 418L-32 502.5L-4.5 81C61.3333 84.3333 201.3 91 234.5 91H412.5L612.5 140L1067.5 124Z" fill="#272F3F"/>
</g>
<defs>
<clipPath id="clip0_2029_1101">
<rect width="1529" height="191" fill="none"/>
</clipPath>
</defs>
</svg>
