<svg width="47" height="45" viewBox="0 0 47 45" fill="#343F56" xmlns="http://www.w3.org/2000/svg">
<g clip-path="url(#clip0_2020_474)">
<path fill-rule="evenodd" clip-rule="evenodd" d="M23.5028 0C10.8222 0 0.571289 10.3125 0.571289 23.0705C0.571289 33.2686 7.13943 41.9011 16.2512 44.9564C17.3904 45.1861 17.8077 44.46 17.8077 43.8492C17.8077 43.3144 17.7701 41.4811 17.7701 39.5709C11.3911 40.9462 10.0628 36.8208 10.0628 36.8208C9.03764 34.147 7.5187 33.4598 7.5187 33.4598C5.43086 32.0466 7.67078 32.0466 7.67078 32.0466C9.98674 32.1994 11.202 34.4147 11.202 34.4147C13.2518 37.9284 16.5549 36.9356 17.8837 36.3244C18.0734 34.8347 18.6812 33.8034 19.3266 33.2306C14.2389 32.6958 8.88602 30.7097 8.88602 21.848C8.88602 19.327 9.79664 17.2645 11.2395 15.6605C11.0119 15.0877 10.2144 12.7191 11.4677 9.54891C11.4677 9.54891 13.4039 8.93766 17.7697 11.917C19.6388 11.412 21.5664 11.1551 23.5028 11.153C25.439 11.153 27.4128 11.4206 29.2354 11.917C33.6016 8.93766 35.5379 9.54891 35.5379 9.54891C36.7911 12.7191 35.9932 15.0877 35.7655 15.6605C37.2464 17.2645 38.1195 19.327 38.1195 21.848C38.1195 30.7097 32.7666 32.6573 27.6409 33.2306C28.4764 33.9562 29.1974 35.3311 29.1974 37.5084C29.1974 40.6022 29.1598 43.0852 29.1598 43.8487C29.1598 44.46 29.5776 45.1861 30.7163 44.9569C39.8281 41.9006 46.3962 33.2686 46.3962 23.0705C46.4338 10.3125 36.1452 0 23.5028 0Z"/>
</g>
<defs>
<clipPath id="clip0_2020_474">
<rect width="46" height="45" fill="white" transform="translate(0.571289)"/>
</clipPath>
</defs>
</svg>
