<svg width="1529" height="191" viewBox="0 0 1529 191" fill="none" xmlns="http://www.w3.org/2000/svg">
<g clip-path="url(#clip0_2034_1138)">
<path d="M8.23787 140.966C-8.14781 143.247 -71.4147 266.435 -101 327.744C-77.7169 916.832 -36.3685 2014.47 -34.6879 2023.6C-32.5872 2035.01 1570.79 1799.52 1570.79 1788.11C1570.79 1692.35 1630 888.554 1630 314.199L1461.42 89.6372C1379.66 85.8351 1278.55 117.44 1248.72 117.44C1211.43 117.44 962.494 89.6372 933.609 76.0922C910.501 65.2562 832.249 99.1424 796.011 117.44C600.818 108.172 206.757 89.6372 192.052 89.6372C173.67 89.6372 28.72 138.114 8.23787 140.966Z" fill="#F2F1EA"/>
</g>
<defs>
<clipPath id="clip0_2034_1138">
<rect width="1529" height="191" fill="white"/>
</clipPath>
</defs>
</svg>
