<svg width="136" height="62" viewBox="0 0 136 62" fill="none" xmlns="http://www.w3.org/2000/svg">
<path d="M47.2001 27.9775C46.5383 27.5488 45.8702 27.336 45.1926 27.336C44.827 27.336 44.4835 27.3959 44.1684 27.5158C43.8501 27.6357 43.5727 27.8066 43.3332 28.0284C43.0937 28.2503 42.9077 28.5111 42.7722 28.8109C42.6367 29.1107 42.5705 29.4494 42.5705 29.8241C42.5705 30.1869 42.6367 30.5166 42.7722 30.8194C42.9046 31.1221 43.0905 31.383 43.3206 31.6018C43.5507 31.8206 43.8311 31.9945 44.1558 32.1144C44.4804 32.2343 44.8239 32.2943 45.1895 32.2943C45.908 32.2943 46.5761 32.0604 47.197 31.5898V34.6835C46.2547 35.0702 45.3596 35.2651 44.515 35.2651C43.7272 35.2651 42.9771 35.1392 42.2648 34.8843C41.5526 34.6295 40.9254 34.2638 40.3834 33.7902C39.8413 33.3165 39.4095 32.7439 39.0849 32.0814C38.7603 31.4189 38.5996 30.6785 38.5996 29.8601C38.5996 29.0447 38.754 28.2952 39.0629 27.6207C39.3717 26.9433 39.794 26.3617 40.3298 25.873C40.8656 25.3844 41.5022 25.0037 42.2428 24.7279C42.9834 24.4521 43.7744 24.3172 44.619 24.3172C45.5487 24.3172 46.406 24.5061 47.197 24.8808V27.9775H47.2001Z" fill="white"/>
<path d="M57.7425 24.641H61.5874V34.9473H57.7425V33.8021C56.9263 34.7794 55.8201 35.2681 54.4271 35.2681C53.6392 35.2681 52.9144 35.1302 52.2526 34.8574C51.5907 34.5816 51.014 34.1979 50.5192 33.7032C50.0276 33.2086 49.6431 32.624 49.3689 31.9555C49.0947 31.287 48.9561 30.5556 48.9561 29.7642C48.9561 29.0267 49.0884 28.3282 49.3563 27.6657C49.6242 27.0032 49.9961 26.4246 50.4751 25.927C50.9541 25.4324 51.5246 25.0397 52.1864 24.7519C52.8482 24.4641 53.5794 24.3202 54.383 24.3202C55.735 24.3202 56.8538 24.7699 57.7425 25.6662V24.641ZM52.927 29.7672C52.927 30.1029 52.99 30.4147 53.1161 30.7025C53.2421 30.9902 53.4155 31.2421 53.6329 31.4549C53.8504 31.6707 54.112 31.8356 54.4145 31.9585C54.7171 32.0814 55.0448 32.1384 55.3978 32.1384C55.735 32.1384 56.0565 32.0784 56.359 31.9585C56.6616 31.8386 56.9231 31.6707 57.1406 31.4549C57.358 31.2421 57.5345 30.9932 57.67 30.7114C57.8056 30.4297 57.8717 30.1299 57.8717 29.8061C57.8717 29.4824 57.8056 29.1796 57.67 28.8918C57.5377 28.604 57.3612 28.3522 57.1406 28.1393C56.9231 27.9265 56.6616 27.7586 56.359 27.6357C56.0565 27.5158 55.735 27.4559 55.3978 27.4559C55.0448 27.4559 54.7171 27.5158 54.4145 27.6357C54.112 27.7556 53.8504 27.9235 53.6329 28.1393C53.4155 28.3552 53.2421 28.598 53.1161 28.8738C52.99 29.1496 52.927 29.4434 52.927 29.7672Z" fill="white"/>
<path d="M64.1836 24.6409H68.0064V25.906C69.0496 24.9557 70.2156 24.479 71.5141 24.479C73.1182 24.479 74.3441 25.1236 75.1887 26.4096C76.046 25.1116 77.2719 24.4611 78.8634 24.4611C79.3708 24.4611 79.8498 24.53 80.3005 24.6709C80.7512 24.8118 81.1388 25.0336 81.4634 25.3334C81.788 25.6332 82.0433 26.0259 82.2356 26.5085C82.4247 26.9912 82.5223 27.5727 82.5223 28.2562V34.9473H78.6995V29.863C78.6995 29.3414 78.6617 28.9127 78.5829 28.577C78.5041 28.2412 78.3938 27.9804 78.2457 27.7946C78.0976 27.6087 77.9243 27.4798 77.7289 27.4139C77.5303 27.3479 77.3192 27.3149 77.0954 27.3149C75.8695 27.3149 75.2581 28.1663 75.2581 29.866V34.9503H71.4353V29.866C71.4353 29.3444 71.4006 28.9127 71.3313 28.571C71.2619 28.2292 71.1579 27.9595 71.0256 27.7586C70.8932 27.5578 70.7199 27.4199 70.5087 27.3479C70.2976 27.273 70.0518 27.237 69.7681 27.237C69.5286 27.237 69.3048 27.27 69.0937 27.3359C68.8825 27.4019 68.6966 27.5338 68.5327 27.7286C68.372 27.9235 68.2428 28.1903 68.1514 28.532C68.06 28.8738 68.0127 29.3174 68.0127 29.869V34.9533H64.1899V24.6409H64.1836Z" fill="white"/>
<path d="M89.3423 40.0945H85.5195V24.6439H89.3423V25.7891C90.1586 24.8118 91.2711 24.3232 92.6798 24.3232C93.4551 24.3232 94.1768 24.4671 94.8449 24.7549C95.513 25.0426 96.0961 25.4353 96.5877 25.93C97.0793 26.4246 97.4638 27.0092 97.738 27.6777C98.0122 28.3462 98.1509 29.0627 98.1509 29.8271C98.1509 30.5915 98.0122 31.302 97.738 31.9555C97.4638 32.612 97.0825 33.1876 96.5972 33.6822C96.1118 34.1769 95.5382 34.5666 94.8764 34.8484C94.2146 35.1301 93.496 35.271 92.7208 35.271C91.3688 35.271 90.2405 34.8304 89.3423 33.946V40.0945ZM94.1579 29.8271C94.1579 29.5063 94.098 29.2006 93.9782 28.9128C93.8585 28.625 93.6851 28.3732 93.4614 28.1603C93.2345 27.9475 92.9729 27.7766 92.6704 27.6477C92.3678 27.5218 92.04 27.4559 91.6871 27.4559C91.3499 27.4559 91.0316 27.5158 90.7353 27.6357C90.4391 27.7556 90.1838 27.9235 89.9632 28.1393C89.7457 28.3552 89.5692 28.604 89.4337 28.8918C89.3014 29.1796 89.232 29.4854 89.232 29.8061C89.232 30.1269 89.2951 30.4296 89.4211 30.7114C89.5472 30.9932 89.7237 31.236 89.9506 31.4459C90.1743 31.6527 90.4391 31.8206 90.7416 31.9495C91.0442 32.0754 91.3656 32.1414 91.7028 32.1414C92.04 32.1414 92.3584 32.0814 92.6546 31.9615C92.9508 31.8416 93.2061 31.6737 93.4267 31.4579C93.6442 31.245 93.8207 30.9962 93.9562 30.7144C94.0917 30.4296 94.1579 30.1359 94.1579 29.8271Z" fill="white"/>
<path d="M100.643 24.6409V22.7314C100.643 22.0629 100.795 21.4303 101.097 20.8338C101.4 20.2372 101.809 19.7186 102.323 19.2779C102.837 18.8373 103.436 18.4835 104.12 18.2227C104.803 17.9619 105.525 17.83 106.285 17.83C107.044 17.83 107.766 17.9559 108.45 18.2107C109.134 18.4655 109.732 18.8133 110.246 19.257C110.76 19.6976 111.169 20.2192 111.472 20.8128C111.775 21.4094 111.926 22.0479 111.926 22.7314V23.193H108.103V22.7314C108.103 22.4915 108.056 22.2577 107.964 22.0389C107.873 21.82 107.747 21.6192 107.583 21.4453C107.422 21.2715 107.23 21.1306 107.013 21.0226C106.795 20.9147 106.552 20.8608 106.285 20.8608C105.765 20.8608 105.33 21.0496 104.986 21.4243C104.64 21.7991 104.469 22.2337 104.469 22.7314V24.6409H106.666V27.6747H104.469V34.9473H100.647V27.6747H99.2725V24.6409H100.643ZM111.923 34.9503H108.1V24.6439H111.923V34.9503Z" fill="white"/>
<path d="M114.542 24.641H118.365V26.3287C118.771 25.7142 119.272 25.2405 119.865 24.9108C120.457 24.584 121.148 24.4191 121.935 24.4191C122.033 24.4191 122.143 24.4191 122.263 24.4191C122.383 24.4191 122.519 24.4311 122.676 24.4581V27.9355C122.169 27.6957 121.62 27.5728 121.028 27.5728C120.139 27.5728 119.474 27.8246 119.033 28.3252C118.589 28.8289 118.368 29.5603 118.368 30.5256V34.9473H114.545V24.641H114.542Z" fill="white"/>
<path d="M127.955 30.4087C127.955 31.9765 128.73 32.7589 130.277 32.7589C131.11 32.7589 131.733 32.4382 132.159 31.7936H135.856C135.109 34.1529 133.243 35.331 130.259 35.331C129.341 35.331 128.506 35.1991 127.744 34.9383C126.984 34.6775 126.332 34.3058 125.79 33.8231C125.248 33.3405 124.828 32.7649 124.532 32.0964C124.236 31.4279 124.088 30.6755 124.088 29.8451C124.088 28.9877 124.23 28.2143 124.51 27.5248C124.791 26.8353 125.194 26.2478 125.714 25.7651C126.234 25.2825 126.864 24.9108 127.605 24.65C128.346 24.3892 129.178 24.2573 130.107 24.2573C131.021 24.2573 131.847 24.3892 132.578 24.65C133.309 24.9108 133.93 25.2885 134.438 25.7861C134.945 26.2808 135.333 26.8893 135.6 27.6058C135.868 28.3222 136.001 29.1286 136.001 30.028V30.4087H127.955ZM132.433 28.2983C132.307 27.7886 132.046 27.3809 131.652 27.0722C131.258 26.7634 130.779 26.6105 130.214 26.6105C129.622 26.6105 129.14 26.7574 128.768 27.0512C128.396 27.345 128.16 27.7617 128.059 28.2983H132.433Z" fill="white"/>
<path d="M16.6136 0.203113C16.5033 -0.0696844 16.0967 -0.066702 15.9896 0.206095C12.1857 10.0268 -0.174615 20.9057 0.00187077 29.4703C0.00187077 38.2418 6.93208 45.3076 16.2953 45.3076C26.3077 45.3076 33.9564 36.1404 32.0813 26.8803C31.867 25.8191 31.5487 24.7758 31.1484 23.7626C29.5474 19.7216 26.7741 16.1782 24.234 12.6439C21.6655 9.07052 19.0497 5.48517 17.1903 1.51612C16.9855 1.08144 16.7932 0.643785 16.6136 0.203113ZM21.0194 36.5061L18.514 35.5228C18.3469 35.4569 18.1578 35.4479 17.9845 35.4959C17.4046 35.6548 16.7869 35.7327 16.1503 35.7177C12.8727 35.6458 10.2034 33.0827 10.1561 29.965C10.1088 26.7034 12.8727 24.0414 16.2953 24.0414C19.6863 24.0414 22.4345 26.6554 22.4345 29.878C22.4345 31.281 21.9144 32.57 21.0446 33.5773C20.9438 33.6942 20.8997 33.8441 20.9217 33.991L21.2495 36.3382C21.2684 36.4582 21.1392 36.5511 21.0194 36.5061Z" fill="url(#paint0_linear_2023_996)"/>
<mask id="mask0_2023_996" style="mask-type:luminance" maskUnits="userSpaceOnUse" x="0" y="0" width="33" height="46">
<path d="M16.6136 0.203113C16.5033 -0.0696844 16.0967 -0.066702 15.9896 0.206095C12.1857 10.0268 -0.174615 20.9057 0.00187077 29.4703C0.00187077 38.2418 6.93208 45.3076 16.2953 45.3076C26.3077 45.3076 33.9564 36.1404 32.0813 26.8803C31.867 25.8191 31.5487 24.7758 31.1484 23.7626C29.5474 19.7216 26.7741 16.1782 24.234 12.6439C21.6655 9.07052 19.0497 5.48517 17.1903 1.51612C16.9855 1.08144 16.7932 0.643785 16.6136 0.203113ZM21.0194 36.5061L18.514 35.5228C18.3469 35.4569 18.1578 35.4479 17.9845 35.4959C17.4046 35.6548 16.7869 35.7327 16.1503 35.7177C12.8727 35.6458 10.2034 33.0827 10.1561 29.965C10.1088 26.7034 12.8727 24.0414 16.2953 24.0414C19.6863 24.0414 22.4345 26.6554 22.4345 29.878C22.4345 31.281 21.9144 32.57 21.0446 33.5773C20.9438 33.6942 20.8997 33.8441 20.9217 33.991L21.2495 36.3382C21.2684 36.4582 21.1392 36.5511 21.0194 36.5061Z" fill="white"/>
</mask>
<g mask="url(#mask0_2023_996)">
<path d="M20.9025 3.11994C20.9246 5.37726 20.9939 12.8087 14.9934 18.2347C10.2252 22.5485 6.14077 21.5113 3.8307 25.9809C2.37154 28.7989 2.78439 31.5628 2.91046 32.3512C3.72985 37.3965 7.97811 40.1004 8.95193 40.721C14.0322 43.9586 19.6419 43.0323 21.558 42.5946C26.985 41.3565 30.0924 37.8131 30.3571 38.0979C30.6597 38.4277 26.9944 43.6438 21.2965 46.4677C11.3629 51.39 -5.81928 49.5824 -11.5362 39.4709C-16.5093 30.6755 -10.1085 20.3751 -5.36231 12.7368C-4.41685 11.2139 2.14778 0.922568 12.1035 -1.75444C13.6824 -2.18013 17.3854 -3.17539 19.4591 -1.37972C20.3605 -0.594304 20.8773 0.652772 20.9025 3.11994Z" fill="url(#paint1_linear_2023_996)"/>
</g>
<path d="M29.6522 53.2158H2.69714C1.21907 53.2158 0.0214844 52.0706 0.0214844 50.6557C0.0214844 49.2407 1.21907 48.0956 2.69714 48.0956H29.6522C31.1302 48.0956 32.3278 49.2407 32.3278 50.6557C32.3278 52.0676 31.1302 53.2158 29.6522 53.2158Z" fill="url(#paint2_linear_2023_996)"/>
<path d="M20.5882 61.2107C19.9264 61.2107 19.2614 60.9769 18.7446 60.5093L9.85728 52.4812C8.78576 51.5129 8.74164 49.9031 9.76273 48.8839C10.7807 47.8647 12.4762 47.8257 13.5477 48.794L22.435 56.822C23.5066 57.7903 23.5507 59.4001 22.5296 60.4193C22.0033 60.9439 21.2942 61.2107 20.5882 61.2107Z" fill="url(#paint3_linear_2023_996)"/>
<defs>
<linearGradient id="paint0_linear_2023_996" x1="14.8425" y1="20.6537" x2="18.9542" y2="51.1938" gradientUnits="userSpaceOnUse">
<stop stop-color="#343F56"/>
<stop offset="0.0568" stop-color="#424055"/>
<stop offset="0.1633" stop-color="#654152"/>
<stop offset="0.3079" stop-color="#9F444E"/>
<stop offset="0.4836" stop-color="#EE4847"/>
<stop offset="0.496" stop-color="#F44847"/>
<stop offset="0.6596" stop-color="#F0733E"/>
<stop offset="0.7918" stop-color="#ED9837"/>
<stop offset="1" stop-color="#EFBE43"/>
</linearGradient>
<linearGradient id="paint1_linear_2023_996" x1="-13.3392" y1="23.3435" x2="30.3742" y2="23.3435" gradientUnits="userSpaceOnUse">
<stop stop-color="#343F56"/>
<stop offset="0.0568" stop-color="#424055"/>
<stop offset="0.1633" stop-color="#654152"/>
<stop offset="0.3079" stop-color="#9F444E"/>
<stop offset="0.4836" stop-color="#EE4847"/>
<stop offset="0.496" stop-color="#F44847"/>
<stop offset="0.6596" stop-color="#F0733E"/>
<stop offset="0.7918" stop-color="#ED9837"/>
<stop offset="1" stop-color="#EFBE43"/>
</linearGradient>
<linearGradient id="paint2_linear_2023_996" x1="0.0206335" y1="50.6542" x2="32.3276" y2="50.6542" gradientUnits="userSpaceOnUse">
<stop stop-color="#F44847"/>
<stop offset="0.0177" stop-color="#EF4847"/>
<stop offset="0.2824" stop-color="#AD454D"/>
<stop offset="0.5222" stop-color="#794251"/>
<stop offset="0.7294" stop-color="#534054"/>
<stop offset="0.8956" stop-color="#3C3F55"/>
<stop offset="1" stop-color="#343F56"/>
</linearGradient>
<linearGradient id="paint3_linear_2023_996" x1="24.5456" y1="63.1518" x2="9.22833" y2="46.0246" gradientUnits="userSpaceOnUse">
<stop offset="0.0496" stop-color="#343F56"/>
<stop offset="0.1007" stop-color="#424055"/>
<stop offset="0.1965" stop-color="#654152"/>
<stop offset="0.3267" stop-color="#9F444E"/>
<stop offset="0.4848" stop-color="#EE4847"/>
<stop offset="0.496" stop-color="#F44847"/>
<stop offset="0.6596" stop-color="#F0733E"/>
<stop offset="0.7918" stop-color="#ED9837"/>
</linearGradient>
</defs>
</svg>
