<svg width="103" height="205" viewBox="0 0 103 205" fill="none" xmlns="http://www.w3.org/2000/svg">
<path d="M52.7159 0.677546C52.3659 -0.232454 51.0759 -0.222505 50.7359 0.687495C38.6659 33.4475 -0.554064 69.7375 0.00593607 98.3075C0.00593607 127.567 21.9959 151.138 51.7059 151.138C83.4759 151.138 107.746 120.558 101.796 89.6675C101.116 86.1275 100.106 82.6475 98.8359 79.2675C93.7559 65.7875 84.9559 53.9675 76.8959 42.1775C68.7459 30.2575 60.4459 18.2975 54.5459 5.05749C53.8959 3.60749 53.2859 2.14755 52.7159 0.677546ZM66.696 121.778L58.746 118.497C58.216 118.277 57.616 118.248 57.066 118.408C55.226 118.938 53.266 119.198 51.246 119.148C40.846 118.908 32.3759 110.358 32.2259 99.9575C32.0759 89.0775 40.8459 80.1975 51.7059 80.1975C62.4659 80.1975 71.186 88.9175 71.186 99.6675C71.186 104.348 69.5359 108.647 66.7759 112.007C66.4559 112.397 66.316 112.898 66.386 113.388L67.4259 121.218C67.4859 121.618 67.076 121.928 66.696 121.778Z" fill="url(#paint0_linear_2013_125)"/>
<mask id="mask0_2013_125" style="mask-type:luminance" maskUnits="userSpaceOnUse" x="0" y="0" width="103" height="152">
<path d="M52.7159 0.677546C52.3659 -0.232454 51.0759 -0.222505 50.7359 0.687495C38.6659 33.4475 -0.554064 69.7375 0.00593607 98.3075C0.00593607 127.567 21.9959 151.138 51.7059 151.138C83.4759 151.138 107.746 120.558 101.796 89.6675C101.116 86.1275 100.106 82.6475 98.8359 79.2675C93.7559 65.7875 84.9559 53.9675 76.8959 42.1775C68.7459 30.2575 60.4459 18.2975 54.5459 5.05749C53.8959 3.60749 53.2859 2.14755 52.7159 0.677546ZM66.696 121.778L58.746 118.497C58.216 118.277 57.616 118.248 57.066 118.408C55.226 118.938 53.266 119.198 51.246 119.148C40.846 118.908 32.3759 110.358 32.2259 99.9575C32.0759 89.0775 40.8459 80.1975 51.7059 80.1975C62.4659 80.1975 71.186 88.9175 71.186 99.6675C71.186 104.348 69.5359 108.647 66.7759 112.007C66.4559 112.397 66.316 112.898 66.386 113.388L67.4259 121.218C67.4859 121.618 67.076 121.928 66.696 121.778Z" fill="white"/>
</mask>
<g mask="url(#mask0_2013_125)">
<path d="M66.3258 10.4075C66.3958 17.9375 66.6158 42.7275 47.5758 60.8275C32.4458 75.2175 19.4857 71.7575 12.1557 86.6675C7.52572 96.0675 8.83574 105.288 9.23574 107.918C11.8357 124.748 25.3157 133.768 28.4057 135.838C44.5257 146.638 62.3257 143.548 68.4057 142.088C85.6257 137.958 95.4858 126.138 96.3258 127.088C97.2858 128.188 85.6558 145.588 67.5758 155.008C36.0558 171.428 -18.4643 165.398 -36.6043 131.668C-52.3843 102.328 -32.0743 67.9675 -17.0143 42.4875C-14.0143 37.4075 6.81572 3.07752 38.4057 -5.85248C43.4157 -7.27248 55.1658 -10.5925 61.7458 -4.60248C64.6058 -1.98248 66.2458 2.17753 66.3258 10.4075Z" fill="url(#paint1_linear_2013_125)"/>
</g>
<path d="M94.0864 177.518H8.55643C3.86643 177.518 0.0664062 173.698 0.0664062 168.978C0.0664062 164.258 3.86643 160.438 8.55643 160.438H94.0864C98.7764 160.438 102.576 164.258 102.576 168.978C102.576 173.688 98.7764 177.518 94.0864 177.518Z" fill="url(#paint2_linear_2013_125)"/>
<path d="M65.3266 204.188C63.2266 204.188 61.1165 203.408 59.4765 201.848L31.2765 175.068C27.8765 171.838 27.7365 166.468 30.9765 163.068C34.2065 159.668 39.5865 159.538 42.9865 162.768L71.1866 189.548C74.5866 192.778 74.7265 198.148 71.4865 201.548C69.8165 203.298 67.5666 204.188 65.3266 204.188Z" fill="url(#paint3_linear_2013_125)"/>
<defs>
<linearGradient id="paint0_linear_2013_125" x1="47.0962" y1="68.8968" x2="61.4885" y2="170.582" gradientUnits="userSpaceOnUse">
<stop stop-color="#343F56"/>
<stop offset="0.0568" stop-color="#424055"/>
<stop offset="0.1633" stop-color="#654152"/>
<stop offset="0.3079" stop-color="#9F444E"/>
<stop offset="0.4836" stop-color="#EE4847"/>
<stop offset="0.496" stop-color="#F44847"/>
<stop offset="0.6596" stop-color="#F0733E"/>
<stop offset="0.7918" stop-color="#ED9837"/>
<stop offset="1" stop-color="#EFBE43"/>
</linearGradient>
<linearGradient id="paint1_linear_2013_125" x1="-42.3255" y1="77.8694" x2="96.38" y2="77.8694" gradientUnits="userSpaceOnUse">
<stop stop-color="#343F56"/>
<stop offset="0.0568" stop-color="#424055"/>
<stop offset="0.1633" stop-color="#654152"/>
<stop offset="0.3079" stop-color="#9F444E"/>
<stop offset="0.4836" stop-color="#EE4847"/>
<stop offset="0.496" stop-color="#F44847"/>
<stop offset="0.6596" stop-color="#F0733E"/>
<stop offset="0.7918" stop-color="#ED9837"/>
<stop offset="1" stop-color="#EFBE43"/>
</linearGradient>
<linearGradient id="paint2_linear_2013_125" x1="0.0637062" y1="168.973" x2="102.576" y2="168.973" gradientUnits="userSpaceOnUse">
<stop stop-color="#F44847"/>
<stop offset="0.0177" stop-color="#EF4847"/>
<stop offset="0.2824" stop-color="#AD454D"/>
<stop offset="0.5222" stop-color="#794251"/>
<stop offset="0.7294" stop-color="#534054"/>
<stop offset="0.8956" stop-color="#3C3F55"/>
<stop offset="1" stop-color="#343F56"/>
</linearGradient>
<linearGradient id="paint3_linear_2013_125" x1="77.8834" y1="210.663" x2="26.5666" y2="156.081" gradientUnits="userSpaceOnUse">
<stop offset="0.0496" stop-color="#343F56"/>
<stop offset="0.1007" stop-color="#424055"/>
<stop offset="0.1965" stop-color="#654152"/>
<stop offset="0.3267" stop-color="#9F444E"/>
<stop offset="0.4848" stop-color="#EE4847"/>
<stop offset="0.496" stop-color="#F44847"/>
<stop offset="0.6596" stop-color="#F0733E"/>
<stop offset="0.7918" stop-color="#ED9837"/>
</linearGradient>
</defs>
</svg>
