<svg width="1620" height="198" viewBox="0 0 1620 198" fill="none" xmlns="http://www.w3.org/2000/svg">
<g clip-path="url(#clip0_2032_1135)">
<path d="M213.7 69.6702L44.8086 138.388L-26 333L1637.74 323.033L1654 69.6702H1495.07C1474.51 69.6702 1451.19 97.2971 1442.1 111.111L1259.05 69.6702C1204.32 57.7801 1092.99 34 1085.43 34C1077.88 34 855.349 67.2222 745.027 83.8333L483.298 96.9474L213.7 69.6702Z" fill="#E2554F"/>
<path d="M178.943 94.1082L0.657249 105.123L-35 616H1642.99L1654 186.947L1569.05 86.2405L1336.23 49C1265.09 55.9935 1120.82 69.9806 1112.85 69.9806C1102.89 69.9806 812.908 49 796.653 49C783.648 49 569.95 106.697 464.726 135.545L178.943 94.1082Z" fill="#272F3F"/>
</g>
<defs>
<clipPath id="clip0_2032_1135">
<rect width="1620" height="198" fill="white"/>
</clipPath>
</defs>
</svg>
