<svg width="158" height="79" viewBox="0 0 158 79" fill="none" xmlns="http://www.w3.org/2000/svg">
<path d="M142.19 79C138.775 78.9988 135.453 77.8888 132.724 75.8371L79.0026 35.5542L25.2814 75.8371C21.9297 78.3516 17.7163 79.4318 13.5681 78.8401C9.41986 78.2484 5.67661 76.0334 3.16181 72.6822C0.647007 69.331 -0.433349 65.1182 0.158408 60.9706C0.750165 56.823 2.96556 53.0803 6.31723 50.5659L69.5205 3.17051C72.2534 1.11284 75.5816 0 79.0026 0C82.4237 0 85.7519 1.11284 88.4847 3.17051L151.688 50.5659C154.34 52.5574 156.297 55.3324 157.284 58.4981C158.271 61.6638 158.237 65.0597 157.186 68.2048C156.136 71.3499 154.122 74.0848 151.431 76.0223C148.739 77.9597 145.506 79.0015 142.19 79Z" fill="white"/>
</svg>
