<svg width="45" height="45" viewBox="0 0 45 45" fill="#343F56" xmlns="http://www.w3.org/2000/svg">
<path fill-rule="evenodd" clip-rule="evenodd" d="M9.90445 3.75586C13.5693 1.30713 17.878 0 22.2857 0C28.1963 0 33.8647 2.34814 38.0441 6.52734C42.2235 10.7065 44.5714 16.375 44.5714 22.2856C44.5714 26.6934 43.2644 31.002 40.8156 34.667C38.3668 38.332 34.8863 41.1885 30.8141 42.875C26.7419 44.562 22.261 45.0029 17.938 44.1431C13.615 43.2832 9.64406 41.1606 6.52734 38.0439C3.41063 34.9272 1.28811 30.9565 0.42822 26.6333C-0.431673 22.3105 0.00965655 17.8296 1.69641 13.7573C3.38316 9.68506 6.23958 6.20459 9.90445 3.75586ZM14.8706 33.2417C17.0374 34.6895 19.585 35.4619 22.191 35.4619C25.6847 35.459 29.0345 34.0698 31.5049 31.5996C33.9753 29.1294 35.3645 25.7793 35.3674 22.2856C35.3674 19.6797 34.5947 17.1323 33.1468 14.9653C31.699 12.7983 29.6411 11.1094 27.2334 10.1123C24.8257 9.11475 22.1764 8.854 19.6204 9.3623C17.0645 9.87109 14.7166 11.126 12.8739 12.9688C11.0311 14.8115 9.77618 17.1592 9.26776 19.7153C8.75935 22.271 9.02028 24.9204 10.0176 27.3281C11.0149 29.7358 12.7037 31.7935 14.8706 33.2417ZM27.155 15.6611L27.2107 15.7725C27.2352 15.832 27.261 15.8926 27.2881 15.9531L27.3417 16.0698C27.3641 16.1172 27.3873 16.165 27.4113 16.2129H23.0488V10.7583L23.1268 10.8086L23.2661 10.9087L23.5168 11.0981L23.6561 11.2041L23.918 11.4214L24.0294 11.5161L24.3915 11.8447L24.7314 12.1792L24.8372 12.2905L25.0713 12.541L25.166 12.6807L25.3777 12.9312L25.4891 13.0649L25.712 13.3491L25.7955 13.4551L26.0908 13.8618L26.1354 13.9282L26.3806 14.2681L26.4697 14.4131L26.648 14.7026L26.7427 14.8643L26.8931 15.1543L26.9767 15.3101L27.155 15.6611ZM20.715 11.4438L21.0827 11.1431L21.2109 11.0762L21.3892 10.9424V16.2129H17.2607C17.3239 16.0679 17.3907 15.9233 17.4613 15.7783L17.5226 15.6558L17.6897 15.3213L17.7733 15.1709L17.946 14.8647L18.024 14.7256C18.1076 14.5859 18.1912 14.4468 18.2803 14.3076L18.5422 13.9121L18.6369 13.7837L18.8375 13.5054L18.9433 13.3716L19.155 13.0596L19.2386 12.9536L19.5562 12.5859L19.6286 12.5024L19.8849 12.2295L20.0019 12.1123L20.2415 11.8784L20.3585 11.7671L20.6593 11.4941L20.715 11.4438ZM16.6251 17.8843V17.979L16.5809 18.1338L16.5577 18.2183C16.5385 18.2891 16.5201 18.3599 16.5025 18.4302L16.4579 18.603C16.4245 18.7402 16.3929 18.8779 16.3632 19.0151L16.3298 19.1714C16.2908 19.355 16.2574 19.5391 16.224 19.7285V19.812C16.2117 19.8877 16.2002 19.9639 16.1895 20.0405C16.1777 20.1255 16.1669 20.2109 16.1571 20.2969V20.4751C16.1571 20.6162 16.1422 20.7554 16.1125 20.8931V21.0601C16.1125 21.2437 16.1125 21.4331 16.0791 21.6172H21.4444V17.8564H16.6362L16.6251 17.8843ZM16.0457 23.6284V23.6895C16.0457 23.814 16.0635 23.9355 16.0819 24.0615L16.0933 24.1401L16.107 24.2466V24.3916C16.1256 24.5327 16.146 24.6758 16.1683 24.8203V24.9541C16.198 25.1323 16.2314 25.3184 16.2686 25.5112V25.606C16.302 25.7549 16.3373 25.9014 16.3744 26.0464L16.4134 26.1968C16.4382 26.2915 16.4637 26.3862 16.4898 26.481L16.5416 26.6646V26.7261H21.2717V23.2661H16.0234C16.0263 23.3345 16.0291 23.396 16.0327 23.4556C16.0362 23.5127 16.0403 23.5688 16.0457 23.6284ZM17.4503 28.8154L17.5171 28.9487L17.6843 29.2778L17.7623 29.4282L17.9517 29.7681L18.013 29.874C18.0613 29.9556 18.1103 30.0371 18.1598 30.1182L18.2748 30.3027L18.3417 30.4033L18.559 30.7261L18.6537 30.8599L18.8654 31.1499L18.9546 31.2666L19.2666 31.6509L19.3 31.6899L19.5953 32.0244L19.7011 32.1357L19.9463 32.3921L20.0577 32.5034L20.3586 32.7935L20.4087 32.8433L20.7708 33.1611L20.8767 33.25L21.1553 33.4731L21.2779 33.5679L21.3726 33.6348V28.3584H17.2441C17.311 28.5107 17.3797 28.6631 17.4503 28.8154ZM15.4614 16.2129V16.1572C15.5245 15.9937 15.5914 15.832 15.6619 15.6724L15.6954 15.5889C15.7697 15.4214 15.8458 15.2563 15.9238 15.0928L15.9739 14.9927C16.0519 14.8257 16.1355 14.6641 16.2247 14.5024V14.4634C16.3064 14.3071 16.3918 14.1553 16.481 14.0063L16.5311 13.9229C16.6202 13.7705 16.7131 13.6182 16.8097 13.4658L16.8709 13.377L16.9387 13.2749C17.0167 13.1567 17.0953 13.0376 17.1774 12.9258C17.2776 12.7808 17.3817 12.6396 17.4894 12.502L17.5507 12.4243L17.8794 12.0117L17.9462 11.9341C18.0632 11.7944 18.1802 11.6553 18.3028 11.5215L18.5424 11.2598C15.8842 12.1138 13.6207 13.8931 12.1631 16.2739H15.3945L15.4614 16.2129ZM14.3576 21.188V21.6172V21.6338H10.5244C10.5992 20.3408 10.8912 19.0693 11.388 17.873H14.7866V17.9453L14.7086 18.2632L14.6807 18.3799C14.6668 18.4497 14.6514 18.5181 14.6361 18.5864L14.6335 18.5981C14.619 18.6626 14.6047 18.7266 14.5916 18.7925C14.5581 18.9316 14.508 19.0708 14.508 19.21V19.3271C14.4708 19.4351 14.4523 19.5425 14.4523 19.6504V19.7671C14.4463 19.8174 14.4374 19.8682 14.4284 19.9194C14.4125 20.0103 14.3966 20.1016 14.3966 20.1909V20.2407C14.3706 20.3672 14.3576 20.4937 14.3576 20.6196V20.748V21.082V21.188ZM18.3853 33.1611L18.0454 32.7769L17.9841 32.7041L17.6498 32.2866L17.583 32.1973C17.4716 32.0522 17.3601 31.9019 17.2543 31.7515C17.1484 31.6011 17.0481 31.4507 16.9478 31.3003L16.8977 31.2002L16.8067 31.0552C16.7415 30.9502 16.6771 30.8442 16.6136 30.7378L16.5579 30.6484C16.4687 30.4961 16.3814 30.3418 16.296 30.186V30.1523C16.2068 29.9912 16.1233 29.8237 16.0397 29.6514L15.9729 29.5288C15.8911 29.3613 15.8131 29.1943 15.7389 29.0273L15.6999 28.9712C15.6293 28.8115 15.5624 28.6484 15.4993 28.481V28.4141V28.3809H12.1787C13.6496 30.8389 15.9772 32.6665 18.714 33.5122L18.441 33.2227L18.3853 33.1611ZM14.9257 26.6367V26.7148H14.9201H11.3544C10.9068 25.6143 10.6324 24.4507 10.541 23.2661H14.4522V23.3442V23.6226V23.7563C14.4744 23.8677 14.4856 23.9775 14.4856 24.085V24.1519C14.5036 24.2305 14.5161 24.3096 14.5232 24.3882C14.5278 24.4395 14.5302 24.4907 14.5302 24.542V24.6533C14.5562 24.75 14.5692 24.8447 14.5692 24.9375V25.0713L14.675 25.3608V25.4722L14.753 25.8569V25.918L14.8254 26.2471L14.8589 26.3696L14.9257 26.6367ZM28.0299 26.687L28.0244 26.6367C28.0689 26.481 28.1116 26.3247 28.1525 26.1689L28.1915 26.0186C28.2286 25.8696 28.2639 25.7231 28.2973 25.5781V25.4834C28.3345 25.3052 28.3679 25.1196 28.3976 24.9263V24.7925C28.4199 24.6514 28.4403 24.5088 28.4589 24.3638V24.2188C28.4589 24.0352 28.5035 23.8569 28.5202 23.6616V23.6006V23.2383H23.0156V26.687H28.0299ZM29.7295 17.9292V17.8564V17.8398H32.8495C33.3464 19.0361 33.6383 20.3076 33.7131 21.6006H30.1529V21.1714V21.0547V20.7261V20.5977C30.1269 20.4712 30.1139 20.3452 30.1139 20.2188V20.1689C30.0972 20.0239 30.0582 19.8848 30.0582 19.7451V19.6284C30.0429 19.5806 30.0311 19.5327 30.0228 19.4844C30.013 19.4272 30.0081 19.3691 30.0081 19.3105V19.188L29.9245 18.7705C29.9074 18.6797 29.8887 18.5898 29.8683 18.501L29.8354 18.3638L29.8075 18.2412L29.7295 17.9292ZM26.1855 11.3379L26.2747 11.438L26.3471 11.5161L26.687 11.9116L26.7427 11.9785L27.0658 12.3911L27.3834 12.8257L27.4447 12.9092L27.7344 13.3438L27.7901 13.4326C27.872 13.5625 27.9539 13.6973 28.0358 13.832L28.0543 13.8628L28.0742 13.895V13.9341C28.1176 14.0083 28.1602 14.083 28.2018 14.1577C28.2457 14.2368 28.2886 14.3164 28.3305 14.3965L28.4141 14.4858C28.4995 14.6416 28.5813 14.8013 28.6593 14.9648L28.7094 15.0649L28.8199 15.3003C28.8597 15.3867 28.899 15.4736 28.9378 15.561L28.9713 15.6333L29.05 15.8193C29.0921 15.9209 29.1327 16.0225 29.1718 16.1235V16.1738H32.1302C30.7478 13.9404 28.6538 12.2368 26.1855 11.3379ZM26.3473 30.3306L26.4198 30.2192L26.6203 29.896L26.7095 29.7402L26.8766 29.4395L26.9658 29.2778L27.1329 28.9487L27.1998 28.8154C27.274 28.6631 27.3446 28.5107 27.4115 28.3584H23.0156V33.8296L23.0713 33.7905L23.4056 33.5454L23.5338 33.4453L23.79 33.2388L23.9238 33.1221L24.1745 32.8989L24.2971 32.7876L24.6202 32.4756L24.6536 32.4424L24.9935 32.0854L25.0938 31.9688L25.3222 31.707L25.4392 31.5674L25.6509 31.3057L25.7568 31.1665L25.9908 30.8486L26.0576 30.7598C26.1431 30.6187 26.2396 30.4756 26.3473 30.3306ZM30.281 23.3442V23.2661V23.2607H33.8913C33.8 24.4453 33.5256 25.6089 33.0779 26.7095H29.7852V26.6372L29.852 26.3643L29.8799 26.2417L29.9579 25.9072V25.8569L30.0359 25.4668V25.3555L30.086 25.0713L30.1529 24.9487C30.1673 24.9019 30.1783 24.855 30.1857 24.8081C30.1935 24.7588 30.1974 24.709 30.1974 24.6592V24.5479C30.2309 24.4141 30.2476 24.2822 30.2476 24.1523V24.0854C30.2699 23.9741 30.281 23.8623 30.281 23.751V23.623V23.3442ZM29.1889 28.3584V28.3916V28.4473C29.1221 28.6182 29.0534 28.7856 28.9828 28.9487V29.0156L28.9051 29.1904L28.839 29.334L28.7928 29.4321L28.7488 29.5229L28.7042 29.6177C28.6225 29.7847 28.5389 29.9497 28.4535 30.1133L28.4145 30.1802C28.3586 30.2847 28.3012 30.3882 28.2422 30.4912L28.1471 30.6538V30.6982C28.096 30.7852 28.045 30.8706 27.9931 30.9551C27.9487 31.0278 27.9036 31.1001 27.8574 31.1719L27.8016 31.2612C27.7014 31.4136 27.5992 31.564 27.4952 31.7124L27.3559 31.7568C27.3053 31.8291 27.2538 31.9004 27.2015 31.9712C27.1462 32.0459 27.09 32.1191 27.0328 32.1914C26.9214 32.3364 26.8043 32.4814 26.6874 32.6206L26.6205 32.6987L26.2695 33.0996L26.2026 33.1719L26.0801 33.3057C28.6436 32.3975 30.8107 30.6245 32.2086 28.2915H29.2001L29.1889 28.3584ZM28.615 20.8926V21.0601C28.6317 21.2437 28.6428 21.4331 28.6484 21.6172H23.0547V17.873H28.069L28.0968 17.9731C28.1414 18.1255 28.1822 18.2759 28.2194 18.4248L28.264 18.5972C28.2974 18.7349 28.329 18.8721 28.3587 19.0098L28.3921 19.1655C28.4311 19.3496 28.4645 19.5332 28.498 19.7227V19.8062C28.524 19.9658 28.5481 20.1274 28.5704 20.291V20.4692C28.6001 20.6104 28.615 20.7515 28.615 20.8926Z"/>
</svg>
